Simulation
nRows=24
nColumns=15
endheader
time  TH_x TH_y TH_z SC_y  SC_z  SC_x  AC_y  AC_z  AC_x  GH_y  GH_z  GH_yy  EL_x  PS_y
0.75  0.000000  0.000000  0.000000  -33.90394788941217  2.2123558800185528  19.977215378326708  60.97525847219873  1.979165539675736  -12.733616699952538  20.564740516047017  33.2144081571636  -17.42174266361196  19.942230089303287  0.000000
0.765  0.000000  0.000000  0.000000  -34.06764243936301  2.3585104988133083  20.228111900836364  61.0614249079801  2.3641550673985283  -12.655158231813004  20.639525249602134  33.720895778559544  -17.7564790583145  19.739918871520995  0.000000
0.78  0.000000  0.000000  0.000000  -34.24123498672183  2.509278633812611  20.485705396814964  61.14825904526399  2.7412752927846604  -12.565429521607612  20.721505015280037  34.21178998800072  -18.090309588465285  19.536706079851893  0.000000
0.7949999999999999  0.000000  0.000000  0.000000  -34.425515225037316  2.6641025502789666  20.75075142884037  61.237509417130426  3.1083596071339263  -12.463306976487008  20.809900286577687  34.68715858699197  -18.423257213967712  19.33275208764477  0.000000
0.8099999999999999  0.000000  0.000000  0.000000  -34.62140393066269  2.8223471980992128  21.02394390285249  61.33117697960083  3.462992302866389  -12.347927304279477  20.90385369950952  35.147461746882485  -18.75550749314932  19.128254450707193  0.000000
0.825  0.000000  0.000000  0.000000  -34.830028105146106  2.9833830463255646  21.30599807449783  61.43160422718444  3.8028588418203717  -12.218481209485637  21.002260200243622  35.59295277252699  -19.086971371913577  18.92364482376342  0.000000
0.84  0.000000  0.000000  0.000000  -35.052293268226336  3.1462553668818836  21.597488557619283  61.54092827642781  4.125865454939341  -12.074694545424425  21.104095019061795  36.024132025451756  -19.41755595994521  18.71927987967679  0.000000
0.855  0.000000  0.000000  0.000000  -35.28861072508515  3.309668400835435  21.898749825773283  61.66088112181628  4.430685818362922  -11.916670939269991  21.208390147705916  36.44120016408583  -19.746885244303225  18.51556791089714  0.000000
0.87  0.000000  0.000000  0.000000  -35.538655188872625  3.4722245419355695  22.209611343387664  61.79238072291412  4.716617391948999  -11.745470981981924  21.314667588718486  36.84458959621574  -20.074632514990405  18.313078753694416  0.000000
0.885  0.000000  0.000000  0.000000  -35.801514050438016  3.632464840078972  22.52949203775697  61.935467060179995  4.984052846299781  -11.562576375952052  21.422780347545565  37.23419578585239  -20.400050351075947  18.112651596780452  0.000000
0.8999999999999999  0.000000  0.000000  0.000000  -36.07574198855832  3.7889428584985425  22.857267429302205  62.089276436093805  5.233986323024007  -11.370298066998844  21.53300282215791  37.610155312134786  -20.72246394469822  17.915339077727083  0.000000
0.9149999999999999  0.000000  0.000000  0.000000  -36.35991397184421  3.940262785427779  23.191616498530703  62.25238825155446  5.468037702564766  -11.170977533248914  21.645722915156863  37.972218059591555  -21.040763304762926  17.722376489071948  0.000000
0.9299999999999999  0.000000  0.000000  0.000000  -36.652290784152136  4.085380071770731  23.530912228796097  62.423049083183024  5.687530561238073  -10.967071646538882  21.760903562688778  38.32062726830377  -21.354259610441993  17.534511954691403  0.000000
0.945  0.000000  0.000000  0.000000  -36.95076075652221  4.223587388802842  23.87335014689034  62.59951811415217  5.893947654153484  -10.760484986850962  21.877176776337013  38.65512343860383  -21.662107247664654  17.352128908369828  0.000000
0.96  0.000000  0.000000  0.000000  -37.25305259511204  4.354344443359367  24.217194520025945  62.779808145591126  6.088435256728891  -10.553288861821889  21.992574974973664  38.97565474798886  -21.963359250385338  17.17600211713355  0.000000
0.975  0.000000  0.000000  0.000000  -37.55786440960036  4.477427527058439  24.561344411343846  62.962916175487145  6.271519738720239  -10.346557484365405  22.105600285529384  39.282060109915285  -22.256992586033956  17.00605909757786  0.000000
0.99  0.000000  0.000000  0.000000  -37.86374690212918  4.592641056221126  24.904428558874333  63.14791223252474  6.443799226957672  -10.141517835824128  22.21529708305858  39.57464732754523  -22.542193770686392  16.842730584456415  0.000000
1.005  0.000000  0.000000  0.000000  -38.16924855388156  4.69966286730582  25.24525149748159  63.333995306415616  6.606281892442392  -9.939174928069397  22.32106916265782  39.853246824227504  -22.817670612500326  16.68690024395388  0.000000
1.02  0.000000  0.000000  0.000000  -38.47298740962762  4.798459531494716  25.582532477048577  63.52037394138413  6.759327443904226  -9.740536573570585  22.422804156473767  40.118438056690074  -23.082415170258823  16.539222344256725  0.000000
1.035  0.000000  0.000000  0.000000  -38.77339576001891  4.889134803068888  25.915095069203534  63.70608780192603  6.903432030137822  -9.546354124734673  22.520010948873864  40.37016338607253  -23.335340009208164  16.400546248685306  0.000000
1.05  0.000000  0.000000  0.000000  -39.068715480873784  4.972180624302327  26.240851982472282  63.88961306776388  7.038990266082657  -9.357039677818312  22.611590568254904  40.60890583855009  -23.575506421280583  16.271519245266994  0.000000
1.065  0.000000  0.000000  0.000000  -39.35787358224427  5.04827416915098  26.55806255420253  64.0698636570343  7.166282145107792  -9.17242549272822  22.695915363064778  40.83456882124468  -23.80203848900811  16.152656522957713  0.000000
1.08  0.000000  0.000000  0.000000  -39.639995389827085  5.117924200102994  26.86613186510889  64.24608086844066  7.284370671513662  -8.993521366942472  22.771626612977528  41.04787888080841  -24.01423641246629  16.043775226127405  0.000000
1.095  0.000000  0.000000  0.000000  -39.913686683581616  5.180991953583305  27.164790535134625  64.41741705293938  7.393306180358295  -8.821888539964581  22.836980830883757  41.24864391371451  -24.21119986170714  15.945369776992273  0.000000
